<?xml version="1.0" encoding="utf-8"?>
<!-- Generator: Adobe Illustrator 26.5.0, SVG Export Plug-In . SVG Version: 6.00 Build 0)  -->
<svg version="1.1" id="Layer_1" xmlns="http://www.w3.org/2000/svg" xmlns:xlink="http://www.w3.org/1999/xlink" x="0px" y="0px"
	 viewBox="0 0 426 34" style="enable-background:new 0 0 426 34;" xml:space="preserve">
<style type="text/css">
	.st0{fill:#FFFFFF;}
</style>
<g>
	<polygon class="st0" points="49.6,34 39.2,34 39.2,20.8 10.4,20.8 10.4,34 0,34 0,0 10.4,0 10.4,11.5 39.2,11.5 39.2,0 49.6,0 	"/>
	<path class="st0" d="M107.1,34H96.7V9.3H67.9V34H57.5V5.7C57.5,2.6,60,0,63.2,0h38.2c3.1,0,5.7,2.5,5.7,5.7V34z"/>
	<path class="st0" d="M162.3,9.2l-38.4,0v15.6l38.5,0V34h-38.8c-6.8,0-10.2-2.8-10.2-8.3V8.3c0-5.5,3.4-8.3,10.2-8.3h38.6V9.2z"/>
	<polygon class="st0" points="171,34 183.8,34 209.4,0 196.6,0 	"/>
	<polygon class="st0" points="171,34 183.8,34 209.4,0 196.6,0 	"/>
	<polygon class="st0" points="189.5,34 202.3,34 227.9,0 215.1,0 	"/>
	<path class="st0" d="M248.4,9.2c-0.8,0-1.2,0.3-1.7,1.1l-4.9,8.9h14.9l-4.9-8.9c-0.4-0.7-0.9-1.1-1.6-1.1H248.4z M276.5,34h-11.8
		l-3.4-6.1h-24L234,34h-11.7L240,2.9c1.1-2.1,2.2-2.9,5.1-2.9h8.6c2.5,0,3.9,0.7,5.1,2.9L276.5,34z"/>
	<polygon class="st0" points="316.8,9.2 298.4,9.2 298.4,34 288,34 288,9.2 269.3,9.2 269.3,0 316.8,0 	"/>
	<path class="st0" d="M425.9,9.2h-38.4v1.7v14H426V34h-38.8c-6.8,0-10.2-2.8-10.2-8.3V8.3c0-5.5,3.4-8.3,10.2-8.3h38.6V9.2z"/>
	<path class="st0" d="M371.3,34h-10.2V9.2h-0.7c-1.5,0-2.6,0.7-3.4,1.9l-10.4,16C343,32.7,340,34,332.4,34h-2
		c-4.1,0-7.5-3.3-7.5-7.5V0h10.2v24.8h0.7c1.4,0,2.5-0.7,3.4-1.8l10.7-16.1c3.2-4.8,5.9-6.9,11.8-6.9h4.2c4.1,0,7.5,3.3,7.5,7.5V34z
		"/>
</g>
</svg>
